<svg width="160" height="160" viewBox="0 0 160 160" fill="none" xmlns="http://www.w3.org/2000/svg">
  <ellipse cx="80" cy="138" rx="42" ry="10" fill="#164C55" fill-opacity=".16"/>
  <circle cx="80" cy="74" r="54" fill="#EAF9FF"/>
  <circle cx="80" cy="74" r="42" fill="#73D7EF"/>
  <circle cx="80" cy="77" r="34" fill="#FFD6A6"/>
  <path d="M52 62c9-16 45-19 58 0-16-8-40-8-58 0Z" fill="#7A4A2D"/>
  <circle cx="66" cy="80" r="7" fill="#164C55"/>
  <circle cx="94" cy="80" r="7" fill="#164C55"/>
  <path d="M70 96c7 6 14 6 21 0" stroke="#164C55" stroke-width="5" stroke-linecap="round"/>
  <rect x="48" y="112" width="64" height="28" rx="14" fill="#F5FBFF"/>
  <circle cx="80" cy="126" r="10" fill="#18B7AE"/>
  <path d="M36 88c-10 6-18 16-20 28" stroke="#73D7EF" stroke-width="10" stroke-linecap="round"/>
  <path d="M124 88c10 6 18 16 20 28" stroke="#73D7EF" stroke-width="10" stroke-linecap="round"/>
</svg>
